<?xml version="1.0" standalone="no"?>
<!DOCTYPE svg PUBLIC "-//W3C//DTD SVG 20010904//EN"
 "http://www.w3.org/TR/2001/REC-SVG-20010904/DTD/svg10.dtd">
<svg version="1.0" xmlns="http://www.w3.org/2000/svg"
 width="160.000000pt" height="143.000000pt" viewBox="0 0 160.000000 143.000000"
 preserveAspectRatio="xMidYMid meet">

<g transform="translate(0.000000,143.000000) scale(0.100000,-0.100000)"
fill="#000000" stroke="none">
<path d="M17 1412 c-15 -17 -17 -68 -17 -534 0 -486 1 -516 18 -531 17 -16 86
-17 784 -17 728 0 766 1 781 18 15 17 17 68 17 534 0 486 -1 516 -18 531 -17
16 -86 17 -784 17 -728 0 -766 -1 -781 -18z m1503 -472 l0 -410 -720 0 -720 0
0 410 0 410 720 0 720 0 0 -410z"/>
<path d="M626 278 c-3 -7 -7 -35 -10 -61 -7 -61 -38 -133 -68 -157 -19 -15
-21 -22 -12 -37 10 -17 31 -18 264 -18 228 0 254 2 264 17 8 14 5 23 -18 47
-29 30 -66 139 -66 193 l0 28 -175 0 c-132 0 -177 -3 -179 -12z"/>
</g>
</svg>
