<?xml version="1.0" standalone="no"?>
<!DOCTYPE svg PUBLIC "-//W3C//DTD SVG 20010904//EN"
 "http://www.w3.org/TR/2001/REC-SVG-20010904/DTD/svg10.dtd">
<svg version="1.0" xmlns="http://www.w3.org/2000/svg"
 width="160.000000pt" height="160.000000pt" viewBox="0 0 160.000000 160.000000"
 preserveAspectRatio="xMidYMid meet">

<g transform="translate(0.000000,160.000000) scale(0.100000,-0.100000)"
fill="#000000" stroke="none">
<path d="M1350 1565 l-34 -35 107 -108 107 -107 35 35 35 35 -108 108 -108
107 -34 -35z"/>
<path d="M1210 1425 l-34 -35 107 -108 107 -107 35 35 35 35 -108 108 -108
107 -34 -35z"/>
<path d="M132 1389 c-46 -14 -109 -79 -122 -128 -7 -28 -10 -216 -8 -584 l3
-543 27 -41 c15 -22 44 -51 65 -64 l38 -24 565 0 565 0 38 24 c21 13 50 42 65
64 l27 41 3 455 3 456 -101 -100 -100 -100 0 -322 0 -323 -500 0 -500 0 0 500
0 500 323 0 322 0 100 100 100 100 -440 -1 c-245 0 -455 -5 -473 -10z"/>
<path d="M780 995 l-315 -315 108 -107 107 -108 320 320 320 320 -102 102
c-57 57 -107 103 -113 103 -6 0 -152 -142 -325 -315z"/>
<path d="M400 502 l0 -102 103 0 102 0 -55 50 c-30 28 -76 74 -102 102 l-48
51 0 -101z"/>
</g>
</svg>
