<?xml version="1.0" standalone="no"?>
<!DOCTYPE svg PUBLIC "-//W3C//DTD SVG 20010904//EN"
 "http://www.w3.org/TR/2001/REC-SVG-20010904/DTD/svg10.dtd">
<svg version="1.0" xmlns="http://www.w3.org/2000/svg"
 width="160.000000pt" height="138.000000pt" viewBox="0 0 160.000000 138.000000"
 preserveAspectRatio="xMidYMid meet">

<g transform="translate(0.000000,138.000000) scale(0.100000,-0.100000)"
fill="#000000" stroke="none">
<path d="M17 1362 c-15 -17 -17 -70 -17 -559 0 -510 1 -541 18 -556 15 -13 39
-17 115 -17 l97 0 0 -98 c0 -83 3 -102 18 -115 17 -15 78 -17 669 -17 617 0
651 1 666 18 15 17 17 70 17 559 0 510 -1 541 -18 556 -15 13 -39 17 -115 17
l-97 0 0 98 c0 83 -3 102 -18 115 -17 15 -78 17 -669 17 -617 0 -651 -1 -666
-18z m1241 -154 l3 -58 -499 0 c-469 0 -500 -1 -515 -18 -15 -16 -17 -62 -19
-401 l-3 -383 -55 -1 -55 -1 -3 449 c-1 248 0 456 3 463 3 10 123 12 572 10
l568 -3 3 -57z m-619 -313 c42 -36 56 -84 38 -127 -23 -53 -52 -73 -109 -73
-43 0 -53 4 -79 33 -22 24 -29 42 -29 73 0 51 13 75 53 99 44 27 89 25 126 -5z
m429 -167 c47 -51 302 -423 302 -441 0 -11 -7 -29 -17 -39 -15 -17 -42 -18
-436 -18 -377 0 -422 2 -439 17 -10 9 -18 27 -18 39 0 29 184 280 210 287 10
3 40 -5 67 -18 l48 -22 111 108 c66 65 119 109 131 109 11 0 29 -10 41 -22z"/>
</g>
</svg>
